<svg width="80" height="80" viewBox="0 0 80 80" fill="none" xmlns="http://www.w3.org/2000/svg">
<path d="M40.0001 6.66667C21.6334 6.66667 6.66675 21.6333 6.66675 40C6.66675 58.3667 21.6334 73.3333 40.0001 73.3333C58.3668 73.3333 73.3334 58.3667 73.3334 40C73.3334 21.6333 58.3668 6.66667 40.0001 6.66667ZM10.0334 40C10.0334 35.6667 10.9667 31.5333 12.6334 27.8L26.9334 66.9667C16.9334 62.1 10.0334 51.8667 10.0334 40ZM40.0001 69.9667C37.0667 69.9667 34.2334 69.5333 31.5334 68.7333L40.5334 42.6L49.7334 67.8333C49.8001 67.9667 49.8667 68.1333 49.9334 68.2333C46.8334 69.3667 43.5001 69.9667 40.0001 69.9667ZM44.1334 25.9333C45.9334 25.8333 47.5668 25.6333 47.5668 25.6333C49.1668 25.4333 49.0001 23.0667 47.3667 23.1667C47.3667 23.1667 42.5001 23.5333 39.3668 23.5333C36.4334 23.5333 31.4667 23.1667 31.4667 23.1667C29.8667 23.1 29.6667 25.5667 31.3001 25.6667C31.3001 25.6667 32.8334 25.8667 34.4334 25.9667L39.1001 38.7667L32.5334 58.4333L21.6334 25.9333C23.4334 25.8667 25.0667 25.6667 25.0667 25.6667C26.6667 25.4667 26.5001 23.1 24.8667 23.2C24.8667 23.2 20.0001 23.5667 16.8667 23.5667C16.3001 23.5667 15.6334 23.5667 14.9334 23.5333C20.3334 15.4 29.5334 10.0333 40.0001 10.0333C47.8001 10.0333 54.9001 13 60.2334 17.9C60.1001 17.9 59.9668 17.8667 59.8334 17.8667C56.9001 17.8667 54.8001 20.4333 54.8001 23.2C54.8001 25.6667 56.2334 27.7667 57.7334 30.2333C58.8667 32.2333 60.2001 34.8 60.2001 38.5C60.2001 41.0667 59.2001 44.0333 57.9334 48.2L54.9334 58.2L44.1334 25.9333ZM66.3001 25.6333C70.0424 32.4858 70.9624 40.5283 68.8644 48.049C66.7663 55.5696 61.8159 61.9744 55.0668 65.9L64.2334 39.4333C65.9334 35.1667 66.5001 31.7333 66.5001 28.7C66.5001 27.6 66.4334 26.5667 66.3001 25.6333Z" fill="white"/>
</svg>
