<svg width="40" height="41" viewBox="0 0 40 41" fill="none" xmlns="http://www.w3.org/2000/svg">
<path d="M28.3335 14.8939C29.7142 14.8939 30.8335 13.7746 30.8335 12.3939C30.8335 11.0132 29.7142 9.89394 28.3335 9.89394C26.9528 9.89394 25.8335 11.0132 25.8335 12.3939C25.8335 13.7746 26.9528 14.8939 28.3335 14.8939Z" fill="#CCC5B9"/>
<path d="M26.6667 5.72726C31.2667 5.72726 35 9.4606 35 14.0606V27.3939C35 31.9939 31.2667 35.7273 26.6667 35.7273H13.3333C8.73333 35.7273 5 31.9939 5 27.3939V14.0606C5 9.4606 8.73333 5.72726 13.3333 5.72726H20H26.6667Z" stroke="#CCC5B9" stroke-width="2" stroke-linecap="round" stroke-linejoin="round"/>
<path d="M20.0002 14.0606C23.6835 14.0606 26.6668 17.0439 26.6668 20.7273C26.6668 24.4106 23.6835 27.3939 20.0002 27.3939C16.3168 27.3939 13.3335 24.4106 13.3335 20.7273C13.3335 17.0439 16.3168 14.0606 20.0002 14.0606Z" stroke="#CCC5B9" stroke-width="2" stroke-linecap="round" stroke-linejoin="round"/>
</svg>
