<svg width="80" height="78" viewBox="0 0 80 78" fill="none" xmlns="http://www.w3.org/2000/svg">
<path d="M66.7188 0H13.2812C5.94622 0 0 5.91496 0 13.2114V64.3785C0 71.675 5.94622 77.5899 13.2812 77.5899H66.7188C74.0538 77.5899 80 71.675 80 64.3785V13.2114C80 5.91496 74.0538 0 66.7188 0Z" fill="#470137"/>
<path d="M42.0556 20.4047L32.0734 36.794L42.7531 54.1973C42.8219 54.3192 42.8409 54.4622 42.8069 54.5977C42.7903 54.6555 42.7547 54.6698 42.7 54.672L42.6394 54.6711L42.5656 54.6692C42.5256 54.6692 42.4809 54.6711 42.4312 54.6791H34.7312L34.58 54.6767C34.165 54.6658 33.8659 54.6067 33.6838 54.3039C32.9713 52.9233 32.2557 51.5442 31.5369 50.1667C30.8939 48.9382 30.2334 47.7188 29.5556 46.5089L29.2562 45.9761C28.4455 44.5428 27.6495 43.1014 26.8681 41.6521H26.8144C26.0928 43.0862 25.3504 44.5099 24.5872 45.9226C23.8174 47.3463 23.0571 48.761 22.3062 50.1667C21.5549 51.5732 20.7856 52.9702 19.9987 54.3574C19.8722 54.6403 19.6619 54.6994 19.3691 54.709L19.2472 54.7108H11.895L11.8631 54.7118L11.7581 54.7211C11.6997 54.7245 11.6647 54.7121 11.6534 54.6244C11.6334 54.4943 11.6621 54.3613 11.7341 54.2508L22.0916 37.3277L12.0022 20.3518C11.8951 20.2101 11.8772 20.0944 11.9484 20.0049C11.988 19.9593 12.0378 19.9235 12.0937 19.9003C12.1496 19.8771 12.2102 19.8671 12.2706 19.8712H19.8375C20.0025 19.8623 20.1675 19.8897 20.3206 19.9514C20.4487 20.0239 20.5591 20.1243 20.6425 20.2452C21.2865 21.6689 22.0021 23.0924 22.7894 24.5157C23.5705 25.9299 24.3665 27.3357 25.1775 28.7331C25.976 30.1089 26.719 31.5158 27.4047 32.9505H27.4584C28.1611 31.5162 28.8857 30.0925 29.6319 28.68C30.3648 27.2919 31.116 25.8949 31.8856 24.489C32.6452 23.1013 33.3877 21.7045 34.1128 20.2987C34.1541 20.1669 34.2278 20.0475 34.3275 19.9514C34.46 19.8846 34.609 19.8568 34.7569 19.8712H41.7872C41.8518 19.8552 41.9199 19.8605 41.9813 19.8863C42.0427 19.9121 42.0939 19.957 42.1274 20.0143C42.1609 20.0716 42.1748 20.1381 42.1669 20.2039C42.1591 20.2697 42.13 20.3312 42.0841 20.3792L42.0556 20.4047ZM57.8275 55.3677L57.4575 55.3717C54.9873 55.4093 52.5397 54.8987 50.2928 53.8771C48.1996 52.9135 46.4499 51.3404 45.275 49.366C44.0902 47.4086 43.4824 44.9699 43.4516 42.05L43.4503 41.8121C43.4302 39.362 44.0596 36.9498 45.2753 34.8188C46.492 32.7096 48.2656 30.9717 50.4041 29.7935L50.5881 29.694C52.9131 28.4127 55.7217 27.772 59.0137 27.772L59.1575 27.7735L59.3219 27.7788L59.5062 27.7869L59.7113 27.7987L60.0556 27.823L60.4456 27.854L60.7309 27.8789V17.362C60.7309 17.1131 60.8382 16.9885 61.0528 16.9883H67.815C67.8587 16.9821 67.9033 16.9861 67.9452 17C67.9871 17.0138 68.0252 17.0373 68.0565 17.0683C68.0877 17.0994 68.1112 17.1373 68.1252 17.179C68.1391 17.2207 68.1431 17.265 68.1369 17.3085V48.859C68.1369 49.3889 68.1575 49.9592 68.1987 50.5699L68.2987 51.9548L68.3519 52.7559C68.3585 52.8668 68.3313 52.9771 68.2738 53.0724C68.2163 53.1677 68.1312 53.2435 68.0297 53.2899C66.2852 54.0135 64.4682 54.5503 62.6094 54.8911C61.0314 55.181 59.4319 55.3404 57.8275 55.3677ZM60.7309 48.752V34.1781C60.4409 34.0999 60.1447 34.0464 59.8456 34.018C59.48 33.9813 59.1128 33.9634 58.7453 33.9646C57.443 33.9515 56.156 34.2442 54.9887 34.8188C53.852 35.3813 52.8812 36.2275 52.1712 37.2746C51.4627 38.3054 51.0964 39.6514 51.0722 41.3126L51.0709 41.492C51.0449 42.6556 51.236 43.8139 51.6344 44.9083C51.9588 45.7902 52.4717 46.5917 53.1375 47.2574C53.7747 47.8699 54.5462 48.3268 55.3912 48.5919C56.2839 48.8793 57.2168 49.0236 58.155 49.0194C58.6556 49.0194 59.1207 49.0014 59.5503 48.9656C59.893 48.9399 60.2327 48.8837 60.5653 48.7977L60.7309 48.752Z" fill="#FF61F6"/>
</svg>
