<svg width="40" height="41" viewBox="0 0 40 41" fill="none" xmlns="http://www.w3.org/2000/svg">
<path d="M31.6667 5.72726C32.5507 5.72726 33.3986 6.07845 34.0237 6.70357C34.6488 7.3287 35 8.17654 35 9.0606V32.3939C35 33.278 34.6488 34.1258 34.0237 34.751C33.3986 35.3761 32.5507 35.7273 31.6667 35.7273H8.33333C7.44928 35.7273 6.60143 35.3761 5.97631 34.751C5.35119 34.1258 5 33.278 5 32.3939V9.0606C5 8.17654 5.35119 7.3287 5.97631 6.70357C6.60143 6.07845 7.44928 5.72726 8.33333 5.72726H31.6667ZM30.8333 31.5606V22.7273C30.8333 21.2863 30.2609 19.9043 29.2419 18.8853C28.223 17.8664 26.841 17.2939 25.4 17.2939C23.9833 17.2939 22.3333 18.1606 21.5333 19.4606V17.6106H16.8833V31.5606H21.5333V23.3439C21.5333 22.0606 22.5667 21.0106 23.85 21.0106C24.4688 21.0106 25.0623 21.2564 25.4999 21.694C25.9375 22.1316 26.1833 22.7251 26.1833 23.3439V31.5606H30.8333ZM11.4667 14.9939C12.2093 14.9939 12.9215 14.6989 13.4466 14.1738C13.9717 13.6487 14.2667 12.9365 14.2667 12.1939C14.2667 10.6439 13.0167 9.37726 11.4667 9.37726C10.7196 9.37726 10.0032 9.67402 9.47498 10.2022C8.94675 10.7305 8.65 11.4469 8.65 12.1939C8.65 13.7439 9.91667 14.9939 11.4667 14.9939ZM13.7833 31.5606V17.6106H9.16667V31.5606H13.7833Z" fill="#CCC5B9"/>
</svg>
