<svg width="40" height="41" viewBox="0 0 40 41" fill="none" xmlns="http://www.w3.org/2000/svg">
<path d="M20.0002 4.06059C17.8115 4.06059 15.6442 4.49169 13.6221 5.32927C11.6 6.16685 9.76269 7.3945 8.21505 8.94215C5.08944 12.0678 3.3335 16.307 3.3335 20.7273C3.3335 28.0939 8.11683 34.3439 14.7335 36.5606C15.5668 36.6939 15.8335 36.1773 15.8335 35.7273V32.9106C11.2168 33.9106 10.2335 30.6773 10.2335 30.6773C9.46683 28.7439 8.3835 28.2273 8.3835 28.2273C6.86683 27.1939 8.50016 27.2273 8.50016 27.2273C10.1668 27.3439 11.0502 28.9439 11.0502 28.9439C12.5002 31.4773 14.9502 30.7273 15.9002 30.3273C16.0502 29.2439 16.4835 28.5106 16.9502 28.0939C13.2502 27.6773 9.36683 26.2439 9.36683 19.8939C9.36683 18.0439 10.0002 16.5606 11.0835 15.3773C10.9168 14.9606 10.3335 13.2273 11.2502 10.9773C11.2502 10.9773 12.6502 10.5273 15.8335 12.6773C17.1502 12.3106 18.5835 12.1273 20.0002 12.1273C21.4168 12.1273 22.8502 12.3106 24.1668 12.6773C27.3502 10.5273 28.7502 10.9773 28.7502 10.9773C29.6668 13.2273 29.0835 14.9606 28.9168 15.3773C30.0002 16.5606 30.6335 18.0439 30.6335 19.8939C30.6335 26.2606 26.7335 27.6606 23.0168 28.0773C23.6168 28.5939 24.1668 29.6106 24.1668 31.1606V35.7273C24.1668 36.1773 24.4335 36.7106 25.2835 36.5606C31.9002 34.3273 36.6668 28.0939 36.6668 20.7273C36.6668 18.5386 36.2357 16.3713 35.3982 14.3492C34.5606 12.3271 33.3329 10.4898 31.7853 8.94215C30.2376 7.3945 28.4003 6.16685 26.3782 5.32927C24.3561 4.49169 22.1889 4.06059 20.0002 4.06059Z" fill="#CCC5B9"/>
</svg>
