<svg width="80" height="84" viewBox="0 0 80 84" fill="none" xmlns="http://www.w3.org/2000/svg">
<path d="M61.25 0H18.75C8.39466 0 0 8.77054 0 19.5896V63.9925C0 74.8116 8.39466 83.5821 18.75 83.5821H61.25C71.6053 83.5821 80 74.8116 80 63.9925V19.5896C80 8.77054 71.6053 0 61.25 0Z" fill="#242938"/>
<path d="M15.3619 32.7296H24.2394C26.845 32.7527 28.7331 33.5371 29.9038 35.0829C31.0742 36.6286 31.4606 38.7397 31.0631 41.4162C30.9085 42.6391 30.5662 43.8388 30.0362 45.0155C29.5283 46.1922 28.8217 47.2535 27.9163 48.1995C26.8121 49.399 25.6306 50.1604 24.3719 50.4836C23.1129 50.8066 21.81 50.9681 20.4631 50.9681H16.4881L15.2294 57.5437H10.625L15.3619 32.7296ZM19.2375 36.6749L17.25 47.0574C17.3825 47.0805 17.515 47.092 17.6475 47.092H18.1113C20.2315 47.1151 21.9981 46.8959 23.4113 46.4344C24.8246 45.9499 25.7742 44.2657 26.26 41.3816C26.6575 38.9591 26.26 37.5632 25.0675 37.194C23.8971 36.8251 22.4285 36.6521 20.6619 36.6749C20.3971 36.698 20.1431 36.7095 19.9 36.7095H19.2044L19.2375 36.6749ZM36.3081 26.1194H40.8794L39.5875 32.7296H43.695C45.9473 32.7759 47.6256 33.2605 48.73 34.1831C49.8563 35.106 50.1875 36.8595 49.7237 39.4436L47.5044 50.9681H42.8669L44.9869 39.9627C45.2075 38.8091 45.1413 37.99 44.7881 37.5055C44.435 37.021 43.6731 36.7787 42.5025 36.7787L38.8256 36.7441L36.1094 50.9681H31.5381L36.3081 26.1194ZM54.6325 32.7296H63.51C66.1156 32.7527 68.0037 33.5371 69.1744 35.0829C70.3448 36.6286 70.7312 38.7397 70.3337 41.4162C70.1792 42.6391 69.8369 43.8388 69.3069 45.0155C68.799 46.1922 68.0923 47.2535 67.1869 48.1995C66.0827 49.399 64.9013 50.1604 63.6425 50.4836C62.3835 50.8066 61.0806 50.9681 59.7337 50.9681H55.7587L54.5 57.5437H49.8956L54.6325 32.7296ZM58.5081 36.6749L56.5206 47.0574C56.6531 47.0805 56.7856 47.092 56.9181 47.092H57.3819C59.5021 47.1151 61.2687 46.8959 62.6819 46.4344C64.0952 45.9499 65.0448 44.2657 65.5306 41.3816C65.9281 38.9591 65.5306 37.5632 64.3381 37.194C63.1677 36.8251 61.6992 36.6521 59.9325 36.6749C59.6675 36.698 59.4135 36.7095 59.1706 36.7095H58.475L58.5081 36.6749Z" fill="white"/>
</svg>
