<svg width="80" height="80" viewBox="0 0 80 80" fill="none" xmlns="http://www.w3.org/2000/svg">
<path d="M61.25 0H18.75C8.39466 0 0 8.39466 0 18.75V61.25C0 71.6053 8.39466 80 18.75 80H61.25C71.6053 80 80 71.6053 80 61.25V18.75C80 8.39466 71.6053 0 61.25 0Z" fill="#242938"/>
<mask id="mask0_57_484" style="mask-type:luminance" maskUnits="userSpaceOnUse" x="11" y="11" width="58" height="58">
<path d="M11.875 11.875H68.125V68.125H11.875V11.875Z" fill="white"/>
</mask>
<g mask="url(#mask0_57_484)">
<path fill-rule="evenodd" clip-rule="evenodd" d="M63.6877 55.6906C60.6284 55.6056 58.2549 55.9191 56.2659 56.7559C55.6931 56.9859 54.774 56.9859 54.6984 57.7069C55.0046 58.0094 55.0415 58.5044 55.3099 58.9238C55.7684 59.6847 56.5727 60.7097 57.299 61.2416L59.7471 62.9909C61.239 63.9025 62.9221 64.4353 64.3756 65.3478C65.2174 65.8803 66.0587 66.5647 66.9006 67.1356C67.3293 67.4397 67.589 67.935 68.1249 68.1241V68.0091C67.8574 67.6681 67.7803 67.1741 67.5137 66.7922L66.3646 65.6903C65.2562 64.2078 63.8781 62.9141 62.3862 61.8506C61.1618 61.0141 58.4849 59.8738 57.9874 58.4678L57.9121 58.3825C58.7524 58.2975 59.7471 58.0016 60.5512 57.7734C61.8528 57.4325 63.0377 57.5075 64.3756 57.1656L66.2131 56.6331V56.2922C65.5243 55.6081 65.0271 54.6953 64.3009 54.0497C62.3503 52.3769 60.2065 50.7416 57.9874 49.3731C56.8018 48.6131 55.2712 48.1178 54.009 47.4728C53.5487 47.2444 52.7846 47.1303 52.5171 46.7503C51.8268 45.9153 51.4452 44.8116 50.9481 43.8225L47.8115 37.2075C47.1231 35.7247 46.7012 34.2419 45.8609 32.8734C41.9199 26.41 37.6346 22.4947 31.0546 18.6541C29.6399 17.8556 27.9568 17.5122 26.1671 17.0947L23.2984 16.9416C22.6853 16.6756 22.0737 15.9528 21.5381 15.6103C19.3574 14.2416 13.7337 11.2766 12.1256 15.1844C11.0927 17.6553 13.6565 20.0881 14.5268 21.3434C15.1784 22.2178 16.0187 23.2059 16.479 24.1947C16.7362 24.8406 16.8221 25.5256 17.0906 26.21C17.7018 27.8825 18.2762 29.7463 19.0796 31.3056C19.5084 32.1041 19.9587 32.9416 20.4943 33.6634C20.8006 34.0894 21.3365 34.2719 21.4506 34.9559C20.9146 35.7169 20.8778 36.8563 20.5715 37.8081C19.1937 42.1044 19.7296 47.4269 21.6802 50.59C22.2934 51.54 23.7381 53.6319 25.6984 52.8328C27.4199 52.1484 27.0359 49.9816 27.5331 48.0803C27.6487 47.6247 27.5718 47.3203 27.8006 47.0153V47.1006L29.3696 50.2559C30.5556 52.1188 32.6221 54.0581 34.3428 55.3516C35.2603 56.0359 35.9874 57.2153 37.1346 57.6328V57.5178H37.0593C36.8293 57.1769 36.4846 57.0234 36.1787 56.7575C35.4902 56.0734 34.7252 55.2366 34.1893 54.4766C32.5834 52.3478 31.1687 49.99 29.9056 47.5572C29.2927 46.3788 28.7568 45.0859 28.2612 43.9075C28.0296 43.4509 28.0296 42.7656 27.6481 42.5391C27.0734 43.3741 26.2334 44.0984 25.8106 45.1244C25.0834 46.7588 25.0081 48.7741 24.7406 50.8653C24.5862 50.9034 24.6546 50.8653 24.5862 50.9503C23.3634 50.6472 22.9415 49.3909 22.4831 48.3275C21.3356 45.6281 21.1434 41.2941 22.1381 38.1763C22.4056 37.3778 23.5546 34.8684 23.0959 34.1081C22.8646 33.3856 22.1012 32.9681 21.6793 32.3972C21.1821 31.6747 20.6481 30.7628 20.3034 29.9644C19.3859 27.8341 18.9271 25.4778 17.9315 23.3488C17.4712 22.36 16.6687 21.3331 16.0177 20.4216C15.2906 19.3947 14.489 18.6719 13.9146 17.4559C13.7234 17.03 13.4559 16.3534 13.7618 15.8966C13.8374 15.5925 13.9915 15.4706 14.2962 15.4025C14.7931 14.9763 16.2099 15.5166 16.7071 15.7431C18.1218 16.3141 19.3077 16.8459 20.4937 17.6434C21.0296 18.0234 21.604 18.7463 22.2924 18.9372H23.0968C24.3212 19.2028 25.6974 19.0222 26.8437 19.3631C28.8718 20.0106 30.7074 20.96 32.3537 21.9875C37.3646 25.1431 41.4974 29.6294 44.289 34.9909C44.7477 35.8653 44.939 36.6638 45.3609 37.5763C46.1652 39.44 47.1599 41.3403 47.9615 43.1663C48.7659 44.9531 49.5306 46.7794 50.6781 48.2619C51.2524 49.0603 53.5468 49.4778 54.5793 49.8963C55.3449 50.2372 56.5299 50.5441 57.2202 50.9616C58.5199 51.76 59.8209 52.6725 61.0443 53.5469C61.6556 54.0019 63.5696 54.9528 63.6834 55.7113L63.6877 55.6906ZM24.6743 22.6522C24.1459 22.6477 23.6191 22.7115 23.1071 22.8422V22.9275H23.1824C23.4887 23.5359 24.0246 23.9544 24.4068 24.4869L25.2874 26.3119L25.3631 26.2269C25.8987 25.8469 26.1671 25.2384 26.1671 24.3269C25.9374 24.0609 25.8996 23.7941 25.7084 23.5281C25.4787 23.1481 24.9815 22.9572 24.6743 22.6541V22.6522Z" fill="white"/>
</g>
</svg>
