<svg width="80" height="80" viewBox="0 0 80 80" fill="none" xmlns="http://www.w3.org/2000/svg">
<path d="M61.25 0H18.75C8.39466 0 0 8.39466 0 18.75V61.25C0 71.6053 8.39466 80 18.75 80H61.25C71.6053 80 80 71.6053 80 61.25V18.75C80 8.39466 71.6053 0 61.25 0Z" fill="#F4F2ED"/>
<mask id="mask0_57_453" style="mask-type:luminance" maskUnits="userSpaceOnUse" x="19" y="8" width="42" height="64">
<path d="M19.0625 8.75H60.7375V71.25H19.0625V8.75Z" fill="white"/>
</mask>
<g mask="url(#mask0_57_453)">
<path d="M29.4835 71.25C35.2335 71.25 39.9001 66.5834 39.9001 60.8334V50.4166H29.4835C23.7335 50.4166 19.0667 55.0834 19.0667 60.8334C19.0667 66.5834 23.7335 71.25 29.4835 71.25Z" fill="#0ACF83"/>
<path d="M19.0667 40C19.0667 34.25 23.7335 29.5834 29.4835 29.5834H39.9001V50.4166H29.4835C23.7335 50.4166 19.0667 45.75 19.0667 40Z" fill="#A259FF"/>
<path d="M19.0664 19.1666C19.0664 13.4166 23.7333 8.75 29.4833 8.75H39.8998V29.5834H29.4833C23.7333 29.5834 19.0664 24.9166 19.0664 19.1666Z" fill="#F24E1E"/>
<path d="M39.8999 8.75H50.3165C56.0665 8.75 60.7333 13.4166 60.7333 19.1666C60.7333 24.9166 56.0665 29.5834 50.3165 29.5834H39.8999V8.75Z" fill="#FF7262"/>
<path d="M60.7333 40C60.7333 45.75 56.0665 50.4166 50.3165 50.4166C44.5665 50.4166 39.8999 45.75 39.8999 40C39.8999 34.25 44.5665 29.5834 50.3165 29.5834C56.0665 29.5834 60.7333 34.25 60.7333 40Z" fill="#1ABCFE"/>
</g>
</svg>
